<?xml version="1.0" standalone="no"?>
<!DOCTYPE svg PUBLIC "-//W3C//DTD SVG 20010904//EN"
 "http://www.w3.org/TR/2001/REC-SVG-20010904/DTD/svg10.dtd">
<svg version="1.0" xmlns="http://www.w3.org/2000/svg"
 width="600.000000pt" height="600.000000pt" viewBox="0 0 600.000000 600.000000"
 preserveAspectRatio="xMidYMid meet">
<metadata>
Created by potrace 1.11, written by Peter Selinger 2001-2013
</metadata>
<g transform="translate(0.000000,600.000000) scale(0.100000,-0.100000)"
fill="#000000" stroke="none">
<path d="M5661 5238 c-18 -5 -39 -15 -46 -21 -11 -12 -137 -124 -179 -160 -12
-10 -37 -33 -56 -50 -30 -27 -208 -188 -246 -222 -40 -36 -264 -244 -338 -315
-117 -110 -650 -642 -743 -742 l-72 -76 -38 27 c-66 48 -214 132 -313 178
-305 143 -638 231 -1015 268 -33 4 -76 8 -95 11 -42 6 -432 6 -475 0 -16 -2
-61 -7 -100 -10 -99 -10 -143 -15 -200 -26 -27 -5 -70 -12 -94 -15 -61 -9
-269 -61 -376 -95 -188 -59 -411 -156 -520 -226 -30 -19 -57 -34 -60 -34 -20
0 -225 -161 -311 -245 -195 -191 -307 -378 -360 -600 -12 -53 -16 -84 -19
-170 -8 -181 26 -336 111 -502 42 -82 147 -237 179 -263 9 -8 42 -57 72 -109
182 -310 348 -510 551 -663 98 -74 329 -198 442 -237 198 -70 246 -85 355
-113 66 -17 129 -32 140 -33 11 -2 47 -8 80 -13 164 -29 251 -36 465 -36 234
-1 323 8 540 50 82 16 290 77 365 107 182 73 414 213 560 338 101 86 158 145
272 282 59 71 162 233 219 345 l32 62 -40 34 -40 34 55 79 c129 185 187 356
192 568 5 209 -45 396 -152 563 -37 58 -36 64 14 117 10 11 54 61 98 110 240
272 582 619 784 795 35 30 125 104 200 163 75 60 145 116 156 125 11 10 42 35
70 57 136 109 220 194 246 250 21 43 24 66 24 155 0 141 -28 196 -125 246 -40
20 -155 27 -209 12z"/>
</g>
</svg>
